<?xml version="1.0" standalone="no"?>
<!DOCTYPE svg PUBLIC "-//W3C//DTD SVG 20010904//EN"
 "http://www.w3.org/TR/2001/REC-SVG-20010904/DTD/svg10.dtd">
<svg version="1.0" xmlns="http://www.w3.org/2000/svg"
 width="16.000000pt" height="16.000000pt" viewBox="0 0 16.000000 16.000000"
 preserveAspectRatio="xMidYMid meet">

<g transform="translate(0.000000,16.000000) scale(0.100000,-0.100000)"
fill="#000000" stroke="none">
<path d="M17 142 c-24 -26 -23 -104 1 -125 26 -24 104 -23 125 1 24 26 23 104
-1 125 -26 24 -104 23 -125 -1z m121 -25 c16 -13 16 -62 -1 -75 -20 -17 -57
-10 -57 10 0 25 -37 23 -45 -3 -4 -11 -9 -19 -11 -16 -5 5 16 68 27 83 11 13
70 15 87 1z"/>
<path d="M57 113 c-13 -12 -7 -33 8 -33 8 0 15 9 15 20 0 20 -11 26 -23 13z"/>
<path d="M100 80 c0 -43 13 -50 34 -17 8 12 8 22 0 34 -21 33 -34 26 -34 -17z"/>
</g>
</svg>
